<svg version="1.1" viewBox="0 0 64 40.728" xmlns="http://www.w3.org/2000/svg">
 <rect width="64" height="40.728" rx="2.3272" fill="#f9f9f9" stroke-width="1.1636"/>
 <path d="m7.9221 6.9655v14.552h0.5481v-14.552zm1.0962 0v14.552h0.5481v-14.552zm1.4255 0v14.552h0.98677v-14.552zm1.8653 0v14.552h0.5481v-14.552zm1.0962 0v14.552h1.9735v-14.552zm2.5227 0v14.552h0.54806v-14.552zm1.0286 0v14.552h0.9868v-14.552zm1.564 0v14.552h1.5349v-14.552zm3.0093 0v14.552h0.98677v-14.552zm1.4476 0v14.552h0.54806v-14.552zm0.89368 0v14.552h0.98677v-14.552zm2.6728 0v14.552h0.5481v-14.552zm1.0066 0v14.552h0.98677v-14.552zm2.4518 0v14.552h0.54806v-14.552zm0.89134 0v14.552h0.54809v-14.552zm0.89254 0v14.552h0.54806v-14.552zm1.003 0v14.552h0.5481v-14.552zm1.0031 0v14.552h0.54806v-14.552zm2.7881 0v14.552h0.54806v-14.552zm1.4604 0v14.552h1.5349v-14.552zm2.0051 0v14.552h1.2067v-14.552zm2.1156 0v14.552h0.98676v-14.552zm1.3324 0v14.552h0.5481v-14.552zm1.465 0v14.552h1.6454v-14.552zm3.222 0v14.552h1.6454v-14.552zm2.524 0v14.552h0.54806v-14.552zm1.9724 0v14.552h0.5481v-14.552zm1.4255 0v14.552h0.54806v-14.552zm0.87741 0v14.552h0.5481v-14.552zm-34.457 18.996a3.7864 3.7864 0 0 0-2.8753 1.173 4.5267 4.5267 0 0 0-1.1136 3.2478 4.7012 4.7012 0 0 0 0.47712 2.0782 3.6562 3.6562 0 0 0 1.4045 1.5523 3.939 3.939 0 0 0 2.1015 0.56667 4.139 4.139 0 0 0 2.0225-0.5143 3.4909 3.4909 0 0 0 1.4487-1.5127 4.9083 4.9083 0 0 0 0.51083-2.2668 4.992 4.992 0 0 0-0.4852-2.2353 3.5992 3.5992 0 0 0-1.4115-1.5372 3.9889 3.9889 0 0 0-2.0794-0.55157zm31.907 0a3.7864 3.7864 0 0 0-2.8753 1.173 4.5267 4.5267 0 0 0-1.116 3.2478 4.7012 4.7012 0 0 0 0.47708 2.0782 3.6562 3.6562 0 0 0 1.4011 1.5523 3.939 3.939 0 0 0 2.1026 0.56785 4.139 4.139 0 0 0 2.0225-0.5143 3.4909 3.4909 0 0 0 1.4534-1.5139 4.9083 4.9083 0 0 0 0.51083-2.2668 4.992 4.992 0 0 0-0.4852-2.2353 3.5992 3.5992 0 0 0-1.4115-1.5372 3.9889 3.9889 0 0 0-2.0794-0.55157zm-43.799 0.1478v8.3294h3.1768a5.5459 5.5459 0 0 0 1.3428-0.13963 2.5496 2.5496 0 0 0 0.91229-0.41191 2.1062 2.1062 0 0 0 0.61326-0.77615 2.4332 2.4332 0 0 0 0.24666-1.088 2.0236 2.0236 0 0 0-0.4061-1.2614 2.176 2.176 0 0 0-1.1637-0.75519 2.069 2.069 0 0 0 0.87507-0.76104 1.8885 1.8885 0 0 0 0.28973-1.0054 2.0516 2.0516 0 0 0-0.32697-1.0996 1.9688 1.9688 0 0 0-0.90299-0.77849 3.8679 3.8679 0 0 0-1.5314-0.2525zm17.675 0v8.3294h5.2038v-0.98325h-4.1019v-7.346zm6.9702 0v8.3294h6.2161v-0.98325h-5.1141v-2.8346h4.6081v-0.97746h-4.6081v-2.5507h4.9211v-0.98328zm7.5438 0v0.98328h2.7451v7.346h1.102v-7.346h2.7556v-0.98328zm-20.289 0.80056a2.7265 2.7265 0 0 1 1.486 0.41779 2.6415 2.6415 0 0 1 1.0054 1.1764 4.2672 4.2672 0 0 1 0.33862 1.7757 3.5375 3.5375 0 0 1-0.80408 2.4833 2.659 2.659 0 0 1-2.0411 0.87619 2.6636 2.6636 0 0 1-2.0317-0.86689 3.3373 3.3373 0 0 1-0.81456-2.3726v-0.0012a3.5909 3.5909 0 0 1 0.84717-2.6845 2.8183 2.8183 0 0 1 2.0142-0.80412zm31.901 0.0012a2.7265 2.7265 0 0 1 1.486 0.41775 2.6415 2.6415 0 0 1 1.0054 1.1765 4.2672 4.2672 0 0 1 0.34908 1.7757 3.5375 3.5375 0 0 1-0.80405 2.4831 2.659 2.659 0 0 1-2.048 0.87507 2.6636 2.6636 0 0 1-2.0317-0.86689 3.3373 3.3373 0 0 1-0.81455-2.3726l-0.0011-0.0012a3.5909 3.5909 0 0 1 0.84478-2.6834 2.8183 2.8183 0 0 1 2.0142-0.80409zm-42.7 0.18153h1.6652a4.7453 4.7453 0 0 1 1.2672 0.11635 1.0066 1.0066 0 0 1 0.56324 0.43287 1.3394 1.3394 0 0 1 0.19897 0.72961 1.1951 1.1951 0 0 1-0.21296 0.72727 1.1636 1.1636 0 0 1-0.633 0.41426 4.0193 4.0193 0 0 1-1.0473 0.0966h-1.8013zm0 3.4909h1.927a4.1041 4.1041 0 0 1 1.2183 0.13963 1.2591 1.2591 0 0 1 0.66214 0.48289 1.3836 1.3836 0 0 1 0.23858 0.81456 1.4499 1.4499 0 0 1-0.16528 0.6982 1.2067 1.2067 0 0 1-0.42006 0.46546 1.7967 1.7967 0 0 1-0.63653 0.2327 4.771 4.771 0 0 1-0.75054 0.03959h-2.0737z" fill="#010101" stroke-width="1.1636"/>
</svg>
