<svg width="36" height="36" fill="none" version="1.1" viewBox="0 0 1.08 1.08" xmlns="http://www.w3.org/2000/svg">
 <path d="m0.76653 0h-0.45252c-0.19656 0-0.31374 0.11718-0.31374 0.31374v0.45198c0 0.1971 0.11718 0.31428 0.31374 0.31428h0.45198c0.19656 0 0.31374-0.11718 0.31374-0.31374v-0.45252c5.4e-4 -0.19656-0.11664-0.31374-0.3132-0.31374zm-0.22626 0.74952c-0.11556 0-0.20952-0.09396-0.20952-0.20952s0.09396-0.20952 0.20952-0.20952 0.20952 0.09396 0.20952 0.20952-0.09396 0.20952-0.20952 0.20952zm0.31968-0.486c-0.0027 0.00648-0.00648 0.01242-0.01134 0.01782-0.0054 0.00486-0.01134 0.00864-0.01782 0.01134s-0.0135 0.00432-0.02052 0.00432c-0.01458 0-0.02808-0.0054-0.03834-0.01566-0.00486-0.0054-0.00864-0.01134-0.01134-0.01782s-0.00432-0.0135-0.00432-0.02052 0.00162-0.01404 0.00432-0.02052c0.0027-0.00702 0.00648-0.01242 0.01134-0.01782 0.01242-0.01242 0.03132-0.01836 0.0486-0.01458 0.00378 5.4e-4 0.00702 0.00162 0.01026 0.00324 0.00324 0.00108 0.00648 0.0027 0.00972 0.00486 0.0027 0.00162 0.0054 0.00432 0.0081 0.00648 0.00486 0.0054 0.00864 0.0108 0.01134 0.01782 0.0027 0.00648 0.00432 0.0135 0.00432 0.02052s-0.00162 0.01404-0.00432 0.02052z" fill="#292d32" stroke-width=".054"/>
</svg>
