<svg width="36" height="36" enable-background="new 0 0 64 64" version="1.0" viewBox="0 0 2.88 2.88" xmlns="http://www.w3.org/2000/svg">
 <path d="m1.44 0c-0.59643 0-1.08 0.48357-1.08 1.08 0 0.23486 0.076995 0.45036 0.20498 0.62685 0.0023 0.00423 0.00266 0.00896 0.00527 0.013005l0.72 1.08c0.033385 0.050085 0.089635 0.080145 0.14976 0.080145s0.11637-0.03006 0.14976-0.080145l0.72-1.08c0.00265-0.00405 0.00297-0.00877 0.00526-0.013005 0.12798-0.17649 0.20498-0.392 0.20498-0.62685 0-0.59643-0.48357-1.08-1.08-1.08zm0 1.44c-0.19881 0-0.36-0.16119-0.36-0.36s0.16119-0.36 0.36-0.36 0.36 0.16119 0.36 0.36-0.16119 0.36-0.36 0.36z" fill="#231f20" stroke-width=".045"/>
</svg>
