<svg width="36" height="36" fill="none" version="1.1" viewBox="0 0 1.08 1.08" xmlns="http://www.w3.org/2000/svg">
 <path d="m3.3342e-4 0.13725c-0.0054479-0.077181 0.059907-0.13725 0.13712-0.13725h0.16528c0.039635 0 0.075382 0.023881 0.090627 0.060544l0.069113 0.16622c0.016837 0.040492 0.00489 0.087262-0.029294 0.11467l-0.043084 0.034539c-0.019227 0.015414-0.025763 0.041992-0.014364 0.063842 0.058589 0.11228 0.14518 0.20757 0.25047 0.27658 0.022226 0.014564 0.051585 0.00877 0.068168-0.011999l0.044895-0.05624c0.027345-0.034251 0.074016-0.046223 0.11442-0.029354l0.16588 0.069259c0.036589 0.015277 0.06042 0.051099 0.06042 0.090816v0.16611c0 0.077375-0.062159 0.14015-0.13918 0.13468-0.4925-0.03504-0.90556-0.44778-0.9405-0.94239z" fill="#000" stroke-width=".053999"/>
</svg>
