<svg height="30" width="30" viewBox="0 0 58 58" xml:space="preserve" xmlns="http://www.w3.org/2000/svg"><path d="M29.498 0C13.758 0 1.001 12.762 1.001 28.502a28.35 28.35 0 0 0 3.987 14.534L0 58l16.24-4.274a28.373 28.373 0 0 0 13.258 3.273C45.238 57 58 44.242 58 28.502S45.238 0 29.498 0zM18.91 10.007a2.726 2.726 0 0 1 1.107.31c2.487 1.315 5.328 6.17 5.328 6.17.626 1.097.697 2.42-.42 3.046 0 0-1.891 1.578-2.163 1.98-1.241 1.831-1.192 3.527.521 5.24l3.98 3.984 3.984 3.98c1.713 1.713 3.409 1.762 5.24.521.402-.272 1.98-2.164 1.98-2.164.626-1.116 1.949-1.045 3.047-.419 0 0 4.854 2.841 6.17 5.328a2.728 2.728 0 0 1-.483 3.206l-1.756 1.76c-5.577 5.577-11.872 2.828-17.45-2.75l-5.097-5.093-5.098-5.098c-5.577-5.577-8.322-11.876-2.745-17.453l1.756-1.756a2.726 2.726 0 0 1 2.1-.792z"/></svg>