<svg width="299.311" height="118.621" viewBox="0 0 707.371 279.397" version="1.0" xmlns="http://www.w3.org/2000/svg"><path d="M320-.442c-51.39 2.55-102.93 7.82-152.97 20.31-18.62 4.83-37.079 10.32-55.169 16.83-26.37 11.33-53.551 22.43-75.75 41.08-14.79 11.92-26.92 27.493-33.42 45.453-1.39 3.88-1.951 7.98-2.691 12.02v14.028c3.04 20.76 17.21 37.5 32.45 50.9 7.12 5.9 14.29 11.81 22.04 16.88 16.69 9.12 33.79 17.579 51.57 24.399 48.55 18.95 100.202 28.554 151.862 33.964 9.05.5 17.987 2.387 27.077 2.317 6.07.53 12.15 1.012 18.25 1.052 24.21 1.82 48.489.747 72.729.827 15.65-1.21 31.373-1.29 47.003-2.9 34.3-2.62 68.35-8.097 101.97-15.347 23.23-5.52 46.52-11.081 69.15-18.791 19.29-6.04 37.927-14.252 55.257-24.672 13.81-7.96 26.224-18.277 36.904-30.087 11.31-13.26 19.698-29.71 20.938-47.29 1.18-14.05-3.862-27.97-11.872-39.34-8.43-12.3-20.048-21.902-31.808-30.872-14.89-10.71-31.669-18.34-48.329-25.83-19.55-8.48-39.863-15.018-60.343-20.868-19.23-5.11-38.749-9.15-58.359-12.5-17.14-3.38-34.59-4.65-51.86-7.15-7.53-.68-15.04-1.482-22.57-2.202-4.96-.32-9.948-.11-14.878-.79-9.03-.8-18.12-.16-27.15-1.08-20-.7-40.02-.191-60.03-.341zm20.038 13.072c18 .11 36.002-.271 53.992.319 6.94 1.01 13.99.368 20.92 1.398 13.46.29 26.79 2.304 40.19 3.444 35.04 4.68 70.061 10.577 103.991 20.707 30.7 8.83 61.288 19.534 88.478 36.604 10.28 6.71 20.581 13.718 28.701 23.028 10 10.52 17.132 24.668 16.682 39.438.34 7.29-2.231 14.312-5.091 20.892-4.8 10.81-12.602 19.917-21.192 27.907-10.84 9.44-22.997 17.194-35.357 24.474-27.12 14.42-56.513 24.09-86.373 31.01-7.67 2.41-15.64 3.6-23.5 5.16-19.08 3.98-38.327 6.938-57.587 9.878-17.8 3.09-35.852 4.061-53.812 5.631-4.37.1-8.76-.033-13.11.457-6.96.89-13.992.472-20.992.582-14.32.44-28.649.228-42.979.198-9.64-.6-19.35.423-28.95-.927-56.12-2.62-112.077-10.99-166.297-25.89-24.5-7.6-48.742-16.489-71.182-29.049-11.5-7.12-22.598-15.06-31.808-25.04-6.3-6.83-12.772-13.903-16.552-22.503-5.19-13.66-4.76-29.609 1.8-42.739 2.48-4.99 6.28-9.109 9.6-13.529 15.6-18.5 35.54-33.11 57.34-43.5 11.22-5.68 23.15-9.739 34.89-14.199 16.53-5.17 32.912-11.141 50.042-14.041 34.29-7.55 69.098-12.491 104.028-15.731 15.37-1.21 30.709-3.152 46.159-3.042 5.99-.19 11.96-1.047 17.97-.937zM352.95 23.5a1291.43 1291.43 0 0 0-34.019.411c-9.92 1.11-19.93.19-29.85 1.32-22.8.79-45.53 2.626-68.22 4.916-40.77 5.02-81.63 13.163-119.43 29.713-3 1.34-6.002 2.677-9.002 3.997C74.948 71.707 58.42 81.91 43.99 94.54A257.754 257.754 0 0 0 33.281 106c-6.98 8.97-13.881 18.93-15.191 30.52-1.13 14.09 4.658 28.378 14.618 38.298 18.23 19.64 42.564 32.213 67.254 41.783 26.9 9.33 54.29 17.5 82.37 22.41 36.84 7.22 74.23 11.457 111.71 12.967 8.26 1.06 16.617.304 24.897 1.214 5.32.45 10.682.477 16.022.447 13.03-.05 26.058.181 39.078-.369 9.63-.77 19.3-.6 28.96-.65 31.29-2.46 62.619-4.73 93.809-8.49 8.1-1.17 16.144-2.74 24.284-3.66 23.41-3.69 46.469-9.53 68.989-16.88 19.67-6.81 39.467-14.351 56.397-26.721 15.09-10.22 29.303-22.959 37.333-39.619 4.55-9 6.337-19.33 4.847-29.31-2.55-12.92-10.687-24.12-20.587-32.5-11.13-9.72-24.013-17.24-37.283-23.63-14.68-6.35-29.61-12.1-44.769-17.18-35.75-11.6-72.731-18.993-109.941-24.003-15.05-1.43-30.019-3.858-45.139-4.348-6.89-1.17-13.897-.37-20.827-1.15-7.68-.92-15.464-.178-23.144-1.218a1566.375 1566.375 0 0 0-34.019-.41zM192.967 76.847c6.158-.245 12.402.674 17.614 4.132 3.5 2.35 6.809 6.792 4.769 11.142-2.2 7.32-12.408 9.96-18.118 5.23-3.01-3.1-2.614-7.651-.254-10.981-.32-.45-.94-1.351-1.26-1.791-13.62-2.42-27.967 1.561-38.787 10.081-5.95 4.89-11.872 10.079-16.082 16.599-7.58 11.87-13.498 25.863-11.678 40.223 1.32 7.01 4.587 14.44 11.207 17.89 8.13 4.79 18.35 4.02 26.8.49 7.21-2.28 13.462-6.553 19.872-10.423.73.96 1.36 2 2.04 3.01-2.15 5.17-7.79 7.281-12.15 10.201-13.23 6.73-29.072 9.99-43.532 5.47-10.77-2.77-19.307-12.03-22.147-22.66-1.76-5.41-1.551-11.191-1.361-16.801 0-4.23 1.4-8.278 2.95-12.168 4.44-10.93 11.95-20.47 21.14-27.81 7.93-5.75 16.21-11.221 25.36-14.831 8.9-3.1 18.029-6.191 27.529-6.421 1.992-.29 4.036-.5 6.088-.582zm261.845 2.774c2.316.037 4.506 1.673 6.186 3.24 1.54 5.12.222 11.24-4.178 14.56-2.5 2.61-6.3 2.38-9.6 2.28-6.4-5.75-2.608-17.291 5.252-19.521a4.863 4.863 0 0 1 2.34-.559zm57.468 26.87c2.42-.004 4.844.187 7.229.567 3.94.86 7.98 2.212 10.93 5.092 1.52 1.72 2.43 3.859 3.43 5.899 2.5 6.99-1.697 14.261-6.887 18.791-11.83 9.63-27.7 10.662-42 13.982-1.77 4.9-2.1 11.247 1.62 15.357 4.75 4.73 12.316 6.032 18.496 3.572 6.6-2.09 12.093-6.372 17.563-10.432 1.04-1.36 2.317-.098 3.467.282-2.38 5.95-7.467 10.15-12.597 13.69-5.94 4.54-13.211 6.85-20.471 8.17-9.1.89-19.45-2.833-23.74-11.373-3.13-6.58-4.049-14.227-2.539-21.357 1.89-15.19 11.358-29.21 24.778-36.59 6.21-3.848 13.46-5.638 20.721-5.65zm-167.589.3c1.75.39 3.51.72 5.29 1.02 3.16 3.14 5.2 7.509 4.75 12.029a57.561 57.561 0 0 0-1.039 3.462c-2.33 3.06-5.76 5.29-9.72 5.23-1.61-.89-3.184-1.832-4.654-2.932-.32-2.23-.856-4.429-1.606-6.559-3.96 1.96-6.96 5.297-9.19 9.047-6.94 12.67-14.171 25.304-18.911 39.014-1.41 3.57-2.003 7.61-4.723 10.51-3.89.22-7.816.306-11.696-.194-.76-.88-1.314-1.896-1.934-2.866 5.57-18.01 12.06-35.754 16.52-54.094l-.157-2.599c-5.55 2.66-9.013 7.98-13.123 12.32-.83 1.14-2.207 1.441-3.517 1.551-.61-2.01.56-3.87 1.44-5.59 5.01-6.65 10.657-13.158 18.117-17.138 2.75-1.47 5.984-1.744 9.034-1.224 3.65 2.89 3.95 8.204 2.83 12.394-.85 5.16-2.57 10.106-3.68 15.186 7.66-10.21 12.77-24.247 25.97-28.567zm72.17.332c1.127.209 2.22.722 3.23 1.657 3.97 4.27 4.98 11.572 1.33 16.382-2.62 2.83-7.003 4.549-10.663 2.779-2.95-2.15-1.8-6.69-4.75-8.89-5.48 4.61-8.956 11-12.776 16.94-2.87 6.07-6.563 11.719-9.033 17.979-3.23 6.66-5.63 13.662-8.24 20.582-.36 1.18-1.32 1.99-2.04 2.94-3.83.74-7.89 1.447-11.59-.203-2.58-1.67-.817-5.25-.337-7.63 5.11-15.7 9.93-31.5 14.78-47.28.39-1.37-.043-2.798-.083-4.178-6.11 2.56-9.19 8.68-13.65 13.15-.85.11-2.538.352-3.378.472-.23-5.22 4.431-8.412 7.131-12.302 5.52-6.73 13.919-13.67 23.209-10.81 5.24 8.71-.639 18.499-2.119 27.409 5.95-8.8 10.3-19.098 19-25.678 2.88-1.815 6.595-3.945 9.979-3.32zm-154.49.226c4.52.05 9.061-.03 13.571.43-5.1 16.2-10.123 32.432-15.223 48.632-1.21 4.01-2.95 7.932-3.06 12.182 7.74-1.24 9.62-10.405 16.47-13.225 1.65 4.52-2.32 8.254-4.93 11.424-5.87 5.79-12.458 12.498-21.178 13.008-3.59.53-6.632-2.437-7.672-5.617-.66-3.6.062-7.282-.028-10.912-6.19 6.22-12.17 13.268-20.78 16.118-3.39.92-6.86.871-10.27.111-5.17-2.71-8.592-8.102-9.232-13.861-1.52-12.95 3.962-25.617 11.142-36.097 7.14-9.66 17.13-17.541 28.79-20.891 6.49-1.81 14.561-2.09 19.331 3.53.99-1.62 2-3.242 3.07-4.832zm337.8.083c3.51 2.66 6.628 6.53 5.858 11.24.66 5.46-4.197 9.288-8.867 10.778-1.77-.9-3.814-1.431-5.304-2.751-1.15-2.4-1.626-5.06-2.626-7.52-6.93 4.29-10.073 12.083-13.973 18.843-6.01 11.29-12.31 22.579-15.93 34.919-.47 2.26-1.738 4.18-3.438 5.7-4.23-.34-8.97.68-12.67-1.92 4.35-17.95 11.591-35.06 15.601-53.1.4-1.72.439-3.49.379-5.24-5.97 2.23-8.462 8.56-13.022 12.51-.93 1.06-2.47.782-3.71 1.052l-.481-2.613c5.95-7.79 11.933-16.428 21.353-20.268 2.81-.74 5.77-.38 8.66-.48 1.54 2.11 2.427 4.596 2.677 7.186-.52 7.26-3.028 14.122-4.468 21.192 5.76-8.51 9.808-18.52 17.978-25.11 3.33-2.83 7.653-4.258 11.983-4.418zm-151.992 1.126c2.085.058 4.129.371 6.029 1.371-2.61 10.54-6.099 20.83-9.509 31.13-2.7 7.49-5.16 15.073-7.52 22.673-.64 2.06-.387 4.236-.327 6.356 7.51-1.88 11.207-9.576 17.877-12.966.21 2.06.413 4.276-.997 5.996-4.93 6.84-11.783 12.254-19.373 15.884-3.82 1.8-8.08 1.69-12.2 1.55-3.42-4.17-3.99-9.983-2.04-14.923 6.03-17.52 12.1-35.027 18.16-52.547.78-1.7 1.151-4.633 3.641-4.353 2.05-.03 4.174-.228 6.26-.17zm62.449 3.102c-1.787-.237-3.62.1-5.17 1.21-11.31 6.14-14.848 19.552-18.768 30.852 5.54.01 11.058-1.022 16.238-2.982 6.1-2.82 12.36-7.199 14-14.129 1.24-4.2 1.253-9.052-1.407-12.712-1.365-1.19-3.107-2.001-4.893-2.239zm-261.693 1.644c-1.902.052-3.811.556-5.576 1.366-15.35 10.59-25.058 28.689-26.408 47.179 1.78 4.83 7.738 6.521 12.048 3.891 12.01-7.25 17.741-20.81 23.051-33.16 1.85-4.97 5.07-9.808 4.02-15.358-.4-.65-1.2-1.93-1.6-2.58-1.74-.99-3.634-1.39-5.535-1.338z"/><path fill="#fefefe" d="M340.038 12.628c-6.01-.11-11.98.751-17.97.941-15.45-.11-30.788 1.832-46.158 3.042-34.93 3.24-69.738 8.177-104.028 15.727-17.13 2.9-33.511 8.871-50.041 14.041-11.74 4.46-23.672 8.519-34.892 14.199-21.8 10.39-41.738 25-57.338 43.5-3.32 4.42-7.121 8.543-9.601 13.533-6.56 13.13-6.99 29.079-1.8 42.739 3.78 8.6 10.252 15.668 16.552 22.498 9.21 9.98 20.308 17.92 31.808 25.04 22.44 12.56 46.682 21.453 71.182 29.053 54.22 14.9 110.176 23.27 166.296 25.89 9.6 1.35 19.311.329 28.951.929 14.33.03 28.659.241 42.979-.199 7-.11 14.033.308 20.993-.582 4.35-.49 8.739-.361 13.109-.461 17.96-1.57 36.012-2.537 53.812-5.627 19.26-2.94 38.508-5.903 57.588-9.883 7.86-1.56 15.83-2.75 23.5-5.16 29.86-6.92 59.252-16.59 86.372-31.01 12.36-7.28 24.517-15.028 35.357-24.468 8.59-7.99 16.392-17.103 21.192-27.913 2.86-6.58 5.431-13.597 5.091-20.887.45-14.77-6.682-28.922-16.682-39.442-8.12-9.31-18.421-16.319-28.701-23.029-27.19-17.07-57.778-27.77-88.478-36.6-33.93-10.13-68.95-16.03-103.99-20.71-13.4-1.14-26.731-3.15-40.191-3.44-6.93-1.03-13.98-.388-20.92-1.398-17.99-.59-35.992-.213-53.992-.323zm12.911 10.875c11.343.008 22.684.15 34.02.406 7.68 1.04 15.463.299 23.143 1.219 6.93.78 13.937-.017 20.827 1.153 15.12.49 30.089 2.919 45.139 4.349 37.21 5.01 74.191 12.398 109.941 23.998 15.16 5.08 30.09 10.83 44.77 17.18 13.27 6.39 26.152 13.913 37.282 23.633 9.9 8.38 18.037 19.58 20.587 32.5 1.49 9.98-.297 20.307-4.847 29.307-8.03 16.66-22.243 29.403-37.333 39.623-16.93 12.37-36.727 19.906-56.397 26.716-22.52 7.35-45.58 13.19-68.99 16.88-8.14.92-16.183 2.491-24.283 3.661-31.19 3.76-62.519 6.033-93.809 8.493-9.66.05-19.33-.123-28.96.647-13.02.55-26.048.324-39.078.374-5.34.03-10.702-.003-16.022-.453-8.28-.91-16.638-.15-24.898-1.21-37.48-1.51-74.869-5.75-111.709-12.97-28.08-4.91-55.47-13.08-82.37-22.41-24.69-9.57-49.024-22.138-67.254-41.778-9.96-9.92-15.748-24.213-14.618-38.303 1.31-11.59 8.21-21.55 15.19-30.52 3.45-3.93 7.03-7.747 10.71-11.457C58.42 81.911 74.948 71.71 92.427 63.86c3-1.32 6.001-2.662 9.001-4.002 37.8-16.55 78.662-24.687 119.432-29.707 22.69-2.29 45.418-4.13 68.218-4.92 9.92-1.13 19.931-.211 29.851-1.321 11.335-.29 22.677-.415 34.02-.406zM192.967 76.849a58.565 58.565 0 0 0-6.088.581c-9.5.23-18.63 3.32-27.53 6.42-9.15 3.61-17.43 9.082-25.36 14.832-9.19 7.34-16.7 16.876-21.14 27.806-1.55 3.89-2.95 7.942-2.95 12.172-.19 5.61-.398 11.392 1.362 16.802 2.84 10.63 11.377 19.889 22.147 22.659 14.46 4.52 30.303 1.26 43.533-5.47 4.36-2.92 9.999-5.03 12.149-10.2-.68-1.01-1.31-2.05-2.04-3.01-6.41 3.87-12.662 8.138-19.872 10.418-8.45 3.53-18.67 4.3-26.8-.49-6.62-3.45-9.887-10.88-11.207-17.89-1.82-14.36 4.098-28.35 11.678-40.22 4.21-6.52 10.132-11.708 16.082-16.598 10.82-8.52 25.167-12.5 38.787-10.08.32.44.94 1.34 1.26 1.79-2.36 3.33-2.756 7.877.254 10.977 5.71 4.73 15.918 2.09 18.118-5.23 2.04-4.35-1.269-8.788-4.769-11.138-5.212-3.458-11.456-4.377-17.614-4.132zm261.845 2.774a4.863 4.863 0 0 0-2.34.558c-7.86 2.23-11.653 13.77-5.253 19.52 3.3.1 7.101.33 9.601-2.28 4.4-3.32 5.718-9.443 4.178-14.563-1.68-1.567-3.87-3.2-6.186-3.235zm57.468 26.869c-7.262.012-14.51 1.802-20.72 5.65-13.42 7.38-22.889 21.4-24.779 36.59-1.51 7.13-.59 14.777 2.54 21.357 4.29 8.54 14.639 12.26 23.739 11.37 7.26-1.32 14.531-3.63 20.471-8.17 5.13-3.54 10.217-7.742 12.597-13.692-1.15-.38-2.427-1.636-3.467-.276-5.47 4.06-10.963 8.337-17.563 10.427-6.18 2.46-13.746 1.162-18.496-3.568-3.72-4.11-3.39-10.462-1.62-15.362 14.3-3.32 30.17-4.347 42-13.977 5.19-4.53 9.387-11.801 6.887-18.791-1-2.04-1.91-4.18-3.43-5.9-2.95-2.88-6.99-4.23-10.93-5.09a45.492 45.492 0 0 0-7.229-.568zm-167.589.3c-13.2 4.32-18.309 18.357-25.969 28.567 1.11-5.08 2.83-10.03 3.68-15.19 1.12-4.19.82-9.5-2.83-12.39-3.05-.52-6.284-.25-9.034 1.22-7.46 3.98-13.107 10.493-18.117 17.143-.88 1.72-2.05 3.58-1.44 5.59 1.31-.11 2.687-.412 3.517-1.552 4.11-4.34 7.573-9.66 13.123-12.32l.157 2.6c-4.46 18.34-10.95 36.078-16.52 54.088.62.97 1.174 1.991 1.934 2.871 3.88.5 7.806.41 11.696.19 2.72-2.9 3.313-6.94 4.723-10.51 4.74-13.71 11.97-26.34 18.91-39.01 2.23-3.75 5.231-7.091 9.191-9.051a34.563 34.563 0 0 1 1.606 6.563c1.47 1.1 3.043 2.037 4.653 2.927 3.96.06 7.391-2.17 9.721-5.23a57.42 57.42 0 0 1 1.039-3.457c.45-4.52-1.59-8.894-4.75-12.034-1.78-.3-3.54-.625-5.29-1.015zm72.17.327c-3.384-.626-7.1 1.504-9.98 3.32-8.7 6.58-13.049 16.882-18.999 25.682 1.48-8.91 7.359-18.704 2.119-27.414-9.29-2.86-17.689 4.08-23.209 10.81-2.7 3.89-7.361 7.082-7.131 12.302.84-.12 2.528-.36 3.378-.47 4.46-4.47 7.54-10.591 13.65-13.151.04 1.38.473 2.812.083 4.182-4.85 15.78-9.67 31.58-14.78 47.28-.48 2.38-2.243 5.96.337 7.63 3.7 1.65 7.76.939 11.59.199.72-.95 1.68-1.76 2.04-2.94 2.61-6.92 5.01-13.918 8.24-20.578 2.47-6.26 6.163-11.914 9.033-17.984 3.82-5.94 7.297-12.325 12.777-16.935 2.95 2.2 1.8 6.74 4.75 8.89 3.66 1.77 8.042.046 10.662-2.784 3.65-4.81 2.64-12.107-1.33-16.377-1.01-.935-2.103-1.453-3.23-1.662zm-154.49.231c-1.07 1.59-2.079 3.208-3.069 4.828-4.77-5.62-12.841-5.34-19.331-3.53-11.66 3.35-21.65 11.23-28.79 20.89-7.18 10.48-12.662 23.152-11.142 36.102.64 5.76 4.061 11.151 9.231 13.861 3.41.76 6.88.81 10.27-.11 8.61-2.85 14.591-9.9 20.781-16.12.09 3.63-.632 7.308.028 10.908 1.04 3.18 4.082 6.152 7.672 5.622 8.72-.51 15.307-7.222 21.177-13.012 2.61-3.17 6.58-6.9 4.93-11.42-6.85 2.82-8.73 11.98-16.47 13.22.11-4.25 1.851-8.171 3.061-12.181 5.1-16.2 10.123-32.428 15.223-48.628-4.51-.46-9.05-.38-13.57-.43zm337.8.079c-4.33.16-8.653 1.592-11.983 4.422-8.17 6.59-12.218 16.6-17.978 25.11 1.44-7.07 3.948-13.931 4.468-21.191-.25-2.59-1.137-5.082-2.677-7.192-2.89.1-5.85-.26-8.66.48-9.42 3.84-15.403 12.483-21.353 20.273l.48 2.608c1.24-.27 2.781.012 3.711-1.048 4.56-3.95 7.052-10.283 13.022-12.513.06 1.75.021 3.523-.379 5.243-4.01 18.04-11.252 35.147-15.602 53.097 3.7 2.6 8.441 1.58 12.671 1.92 1.7-1.52 2.969-3.44 3.439-5.7 3.62-12.34 9.92-23.63 15.93-34.92 3.9-6.76 7.042-14.547 13.972-18.837 1 2.46 1.476 5.12 2.626 7.52 1.49 1.32 3.534 1.85 5.304 2.75 4.67-1.49 9.527-5.323 8.867-10.783.77-4.71-2.348-8.58-5.858-11.24zm-151.992 1.126c-2.085-.057-4.209.145-6.259.175-2.49-.28-2.862 2.649-3.642 4.349-6.06 17.52-12.129 35.031-18.159 52.551-1.95 4.94-1.38 10.749 2.04 14.919 4.12.14 8.38.249 12.2-1.551 7.59-3.63 14.443-9.039 19.373-15.879 1.41-1.72 1.207-3.94.997-6-6.67 3.39-10.367 11.09-17.877 12.97-.06-2.12-.312-4.3.328-6.36 2.36-7.6 4.819-15.179 7.519-22.669 3.41-10.3 6.899-20.59 9.509-31.13-1.9-1-3.944-1.317-6.029-1.375zm62.449 3.107c1.786.237 3.528 1.048 4.893 2.238 2.66 3.66 2.647 8.508 1.407 12.708-1.64 6.93-7.9 11.314-14 14.134a45.743 45.743 0 0 1-16.238 2.977c3.92-11.3 7.458-24.708 18.768-30.848 1.55-1.11 3.383-1.447 5.17-1.21zm-261.693 1.643c1.9-.053 3.794.344 5.534 1.334.4.65 1.202 1.93 1.602 2.58 1.05 5.55-2.17 10.392-4.02 15.362-5.31 12.35-11.042 25.91-23.052 33.16-4.31 2.63-10.268.939-12.048-3.891 1.35-18.49 11.058-36.589 26.408-47.179 1.765-.81 3.674-1.314 5.576-1.366z"/></svg>